<?xml version="1.0" encoding="UTF-8" standalone="no"?>
<!DOCTYPE svg PUBLIC "-//W3C//DTD SVG 1.1//EN" "http://www.w3.org/Graphics/SVG/1.1/DTD/svg11.dtd">
<svg width="100%" height="100%" viewBox="0 0 512 512" version="1.1" xmlns="http://www.w3.org/2000/svg" xmlns:xlink="http://www.w3.org/1999/xlink" xml:space="preserve" xmlns:serif="http://www.serif.com/" style="fill-rule:evenodd;clip-rule:evenodd;stroke-linejoin:round;stroke-miterlimit:2;">
    <g transform="matrix(1,0,0,1,0,-600)">
        <g transform="matrix(1,0,0,1,-0.865979,-20.1297)">
            <g transform="matrix(0.977099,0,0,0.977099,3.09289,14.2014)">
                <g transform="matrix(0.995334,0,0,0.995334,0.879299,14.4026)">
                    <circle cx="260.055" cy="871.795" r="257.2" style="fill:rgb(22,78,99);"/>
                </g>
                <g transform="matrix(0.995334,0,0,0.995334,0.879299,14.4026)">
                    <path d="M260.055,608.567C405.335,608.567 523.283,726.515 523.283,871.795C523.283,1017.07 405.335,1135.02 260.055,1135.02C114.775,1135.02 -3.173,1017.07 -3.173,871.795C-3.173,726.515 114.775,608.567 260.055,608.567ZM260.055,614.595C118.102,614.595 2.855,729.842 2.855,871.795C2.855,1013.75 118.102,1129 260.055,1129C402.008,1129 517.255,1013.75 517.255,871.795C517.255,729.842 402.008,614.595 260.055,614.595Z" style="fill:rgb(8,47,73);"/>
                </g>
            </g>
            <g transform="matrix(0.770431,0,0,0.770431,60.6535,251.668)">
                <g>
                    <g transform="matrix(1,0,0,1,-6.07253,-9.25483)">
                        <g transform="matrix(1.01845,0,0,1.01845,0.507392,-9.6916)">
                            <path d="M32.274,902.53C35.433,910.522 31.51,919.575 23.518,922.734C15.527,925.894 6.474,921.97 3.314,913.979C-8.87,883.16 -15.57,849.582 -15.57,814.451C-15.57,664.828 105.905,543.353 255.528,543.353C293.752,543.353 330.138,551.285 363.132,565.583C371.017,569 374.644,578.175 371.227,586.06C367.81,593.945 358.635,597.572 350.75,594.155C321.553,581.503 289.353,574.493 255.528,574.493C123.092,574.493 15.57,682.015 15.57,814.451C15.57,845.54 21.491,875.256 32.274,902.53ZM26.164,904.946C15.086,876.924 9,846.393 9,814.451C9,678.389 119.466,567.923 255.528,567.923C290.281,567.923 323.364,575.127 353.362,588.127C357.92,590.102 363.224,588.005 365.199,583.448C367.174,578.89 365.077,573.586 360.52,571.611C328.326,557.66 292.824,549.923 255.528,549.923C109.531,549.923 -9,668.454 -9,814.451C-9,848.729 -2.464,881.492 9.424,911.563C11.251,916.183 16.484,918.45 21.103,916.624C25.722,914.798 27.99,909.565 26.164,904.946ZM479.979,729.461C476.931,721.426 480.98,712.429 489.015,709.381C497.049,706.333 506.047,710.381 509.095,718.416C520.421,748.273 526.627,780.644 526.627,814.451C526.627,964.075 405.152,1085.55 255.528,1085.55C217.851,1085.55 181.959,1077.84 149.341,1063.93C141.437,1060.56 137.757,1051.4 141.129,1043.5C144.501,1035.59 153.655,1031.91 161.56,1035.29C190.424,1047.6 222.187,1054.41 255.528,1054.41C387.965,1054.41 495.487,946.888 495.487,814.451C495.487,784.532 490.003,755.884 479.979,729.461ZM486.122,727.131C496.421,754.278 502.057,783.712 502.057,814.451C502.057,950.514 391.591,1060.98 255.528,1060.98C221.272,1060.98 188.638,1053.98 158.982,1041.33C154.413,1039.38 149.121,1041.51 147.172,1046.08C145.223,1050.64 147.35,1055.94 151.919,1057.89C183.745,1071.46 218.766,1078.98 255.528,1078.98C401.526,1078.98 520.057,960.449 520.057,814.451C520.057,781.464 514.003,749.879 502.952,720.746C501.19,716.102 495.989,713.762 491.345,715.524C486.701,717.285 484.361,722.486 486.122,727.131ZM424.859,614.343L473.21,592.077C475.916,590.83 479.113,591.402 481.22,593.509C483.327,595.616 483.898,598.812 482.652,601.519L460.386,649.869L482.64,698.214C483.886,700.92 483.314,704.116 481.207,706.223C479.101,708.33 475.905,708.901 473.198,707.656C473.198,707.656 424.854,685.401 424.854,685.401L376.503,707.668C373.796,708.914 370.6,708.343 368.493,706.236C366.386,704.128 365.814,700.932 367.061,698.225L389.327,649.875L367.073,601.53C365.827,598.824 366.399,595.628 368.505,593.521C370.612,591.414 373.808,590.843 376.514,592.089L424.859,614.343ZM424.86,622.179L373.538,598.554L397.163,649.875L373.526,701.203L424.853,677.566L476.174,701.19L452.55,649.869L476.187,598.542L424.86,622.179ZM86.408,947.647L134.758,925.381C137.465,924.135 140.661,924.706 142.768,926.813C144.875,928.92 145.447,932.117 144.2,934.823L121.934,983.174L144.188,1031.52C145.434,1034.22 144.863,1037.42 142.756,1039.53C140.649,1041.63 137.453,1042.21 134.747,1040.96C134.747,1040.96 86.402,1018.71 86.402,1018.71L38.052,1040.97C35.345,1042.22 32.149,1041.65 30.042,1039.54C27.935,1037.43 27.363,1034.24 28.609,1031.53L50.876,983.179L28.621,934.835C27.376,932.128 27.947,928.932 30.054,926.826C32.161,924.719 35.357,924.147 38.063,925.393L86.408,947.647ZM86.408,955.483L35.087,931.858L58.711,983.18L35.074,1034.51L86.402,1010.87L137.723,1034.5L114.098,983.173L137.735,931.846L86.408,955.483Z" style="fill:rgb(8,47,73);"/>
                        </g>
                        <g transform="matrix(1.01845,0,0,1.01845,0.507392,-9.6916)">
                            <path d="M26.164,904.946C27.99,909.565 25.722,914.798 21.103,916.624C16.484,918.45 11.251,916.183 9.424,911.563C-2.464,881.492 -9,848.729 -9,814.451C-9,668.454 109.531,549.923 255.528,549.923C292.824,549.923 328.326,557.66 360.52,571.611C365.077,573.586 367.174,578.89 365.199,583.448C363.224,588.005 357.92,590.102 353.362,588.127C323.364,575.127 290.281,567.923 255.528,567.923C119.466,567.923 9,678.389 9,814.451C9,846.393 15.086,876.924 26.164,904.946ZM486.122,727.131C484.361,722.486 486.701,717.285 491.345,715.524C495.989,713.762 501.19,716.102 502.952,720.746C514.003,749.879 520.057,781.464 520.057,814.451C520.057,960.449 401.526,1078.98 255.528,1078.98C218.766,1078.98 183.745,1071.46 151.919,1057.89C147.35,1055.94 145.223,1050.64 147.172,1046.08C149.121,1041.51 154.413,1039.38 158.982,1041.33C188.638,1053.98 221.272,1060.98 255.528,1060.98C391.591,1060.98 502.057,950.514 502.057,814.451C502.057,783.712 496.421,754.278 486.122,727.131ZM424.86,622.179L476.187,598.542L452.55,649.869L476.174,701.19L424.853,677.566L373.526,701.203L397.163,649.875L373.538,598.554L424.86,622.179ZM86.408,955.483L137.735,931.846L114.098,983.173L137.723,1034.5L86.402,1010.87L35.074,1034.51L58.711,983.18L35.087,931.858L86.408,955.483Z" style="fill:rgb(235,235,235);"/>
                        </g>
                    </g>
                    <g transform="matrix(1,0,0,1,-9.97449,-26.504)">
                        <g transform="matrix(38.1294,0,0,38.1294,-3507.71,-12292.5)">
                            <path d="M91.723,344.699C91.627,344.699 91.559,344.687 91.519,344.663C91.479,344.639 91.451,344.599 91.435,344.543C91.427,344.479 91.461,344.429 91.537,344.393C91.613,344.357 91.715,344.323 91.843,344.291C92.067,344.227 92.273,344.151 92.461,344.063C92.649,343.975 92.823,343.869 92.983,343.745C93.143,343.621 93.287,343.487 93.415,343.343C94.007,342.687 94.549,342.055 95.041,341.447C95.533,340.839 96.007,340.235 96.463,339.635C96.919,339.035 97.387,338.427 97.867,337.811C97.963,337.691 98.047,337.583 98.119,337.487C98.191,337.391 98.251,337.315 98.299,337.259C98.347,337.203 98.387,337.175 98.419,337.175C98.587,337.175 98.701,337.147 98.761,337.091C98.821,337.035 98.899,336.955 98.995,336.851C99.107,336.723 99.185,336.637 99.229,336.593C99.273,336.549 99.315,336.527 99.355,336.527C99.395,336.527 99.423,336.551 99.439,336.599C99.455,336.647 99.447,336.751 99.415,336.911L98.167,343.175C98.087,343.559 98.081,343.833 98.149,343.997C98.217,344.161 98.363,344.275 98.587,344.339C98.715,344.371 98.811,344.401 98.875,344.429C98.939,344.457 98.971,344.499 98.971,344.555C98.971,344.603 98.943,344.639 98.887,344.663C98.831,344.687 98.735,344.699 98.599,344.699C98.495,344.699 98.361,344.693 98.197,344.681C98.033,344.669 97.859,344.657 97.675,344.645C97.491,344.633 97.315,344.627 97.147,344.627L96.709,344.627C96.561,344.627 96.421,344.629 96.289,344.633C96.157,344.637 96.047,344.639 95.959,344.639C95.791,344.639 95.695,344.591 95.671,344.495C95.663,344.439 95.691,344.389 95.755,344.345C95.819,344.301 95.903,344.271 96.007,344.255C96.271,344.207 96.477,344.153 96.625,344.093C96.773,344.033 96.889,343.941 96.973,343.817C97.057,343.693 97.127,343.519 97.183,343.295L97.555,341.867C97.587,341.747 97.565,341.663 97.489,341.615C97.413,341.567 97.319,341.543 97.207,341.543L95.863,341.567C95.735,341.567 95.633,341.581 95.557,341.609C95.481,341.637 95.411,341.695 95.347,341.783L94.111,343.415C93.967,343.607 93.889,343.757 93.877,343.865C93.865,343.973 93.893,344.053 93.961,344.105C94.029,344.157 94.107,344.199 94.195,344.231C94.283,344.263 94.355,344.299 94.411,344.339C94.467,344.379 94.495,344.431 94.495,344.495C94.495,344.551 94.463,344.591 94.399,344.615C94.335,344.639 94.255,344.651 94.159,344.651C94.055,344.651 93.925,344.647 93.769,344.639C93.613,344.631 93.431,344.627 93.223,344.627C92.975,344.627 92.709,344.639 92.425,344.663C92.141,344.687 91.907,344.699 91.723,344.699ZM96.163,341.159L97.447,341.147C97.535,341.147 97.603,341.123 97.651,341.075C97.699,341.027 97.739,340.939 97.771,340.811L98.347,338.183C98.371,338.087 98.381,338.017 98.377,337.973C98.373,337.929 98.351,337.907 98.311,337.907C98.279,337.907 98.243,337.915 98.203,337.931C98.163,337.947 98.123,337.987 98.083,338.051L95.947,340.895C95.891,340.975 95.859,341.039 95.851,341.087C95.843,341.135 95.947,341.159 96.163,341.159Z" style="fill:rgb(8,47,73);fill-rule:nonzero;"/>
                        </g>
                        <g transform="matrix(38.8723,0,0,38.8723,-3350.94,-12326.1)">
                            <path d="M92.059,344.699C91.963,344.699 91.891,344.689 91.843,344.669C91.795,344.649 91.771,344.615 91.771,344.567C91.771,344.471 91.915,344.399 92.203,344.351C92.603,344.287 92.889,344.189 93.061,344.057C93.233,343.925 93.359,343.723 93.439,343.451L95.083,338.051C95.195,337.707 95.199,337.481 95.095,337.373C94.991,337.265 94.763,337.187 94.411,337.139C94.291,337.123 94.209,337.099 94.165,337.067C94.121,337.035 94.099,336.991 94.099,336.935C94.099,336.887 94.137,336.853 94.213,336.833C94.289,336.813 94.375,336.803 94.471,336.803C94.535,336.803 94.649,336.807 94.813,336.815C94.977,336.823 95.161,336.829 95.365,336.833C95.569,336.837 95.755,336.839 95.923,336.839L97.855,336.839C98.295,336.839 98.629,336.829 98.857,336.809C99.085,336.789 99.245,336.769 99.337,336.749C99.429,336.729 99.483,336.719 99.499,336.719C99.531,336.719 99.561,336.737 99.589,336.773C99.617,336.809 99.631,336.843 99.631,336.875C99.631,336.923 99.607,337.009 99.559,337.133C99.511,337.257 99.459,337.411 99.403,337.595C99.347,337.779 99.303,337.987 99.271,338.219C99.263,338.299 99.237,338.357 99.193,338.393C99.149,338.429 99.107,338.447 99.067,338.447C99.027,338.447 98.993,338.419 98.965,338.363C98.937,338.307 98.927,338.235 98.935,338.147C98.959,337.779 98.927,337.525 98.839,337.385C98.751,337.245 98.547,337.175 98.227,337.175L96.763,337.175C96.571,337.175 96.435,337.201 96.355,337.253C96.275,337.305 96.215,337.399 96.175,337.535L95.371,340.079C95.323,340.223 95.311,340.323 95.335,340.379C95.359,340.435 95.435,340.459 95.563,340.451L97.051,340.415C97.259,340.407 97.425,340.361 97.549,340.277C97.673,340.193 97.783,340.091 97.879,339.971C97.935,339.907 97.997,339.829 98.065,339.737C98.133,339.645 98.203,339.599 98.275,339.599C98.339,339.599 98.373,339.633 98.377,339.701C98.381,339.769 98.363,339.847 98.323,339.935C98.251,340.071 98.189,340.199 98.137,340.319C98.085,340.439 98.039,340.555 97.999,340.667C97.951,340.795 97.909,340.929 97.873,341.069C97.837,341.209 97.799,341.367 97.759,341.543C97.751,341.599 97.733,341.655 97.705,341.711C97.677,341.767 97.643,341.795 97.603,341.795C97.539,341.795 97.497,341.751 97.477,341.663C97.457,341.575 97.447,341.511 97.447,341.471C97.447,341.223 97.405,341.049 97.321,340.949C97.237,340.849 97.127,340.799 96.991,340.799L95.611,340.775C95.475,340.775 95.357,340.793 95.257,340.829C95.157,340.865 95.083,340.971 95.035,341.147L94.423,343.331C94.311,343.739 94.289,344.007 94.357,344.135C94.425,344.263 94.583,344.327 94.831,344.327L96.691,344.327C96.891,344.327 97.069,344.295 97.225,344.231C97.381,344.167 97.523,344.091 97.651,344.003C97.771,343.915 97.883,343.809 97.987,343.685C98.091,343.561 98.195,343.415 98.299,343.247C98.331,343.199 98.363,343.151 98.395,343.103C98.427,343.055 98.467,343.031 98.515,343.031C98.555,343.031 98.579,343.059 98.587,343.115C98.595,343.171 98.599,343.223 98.599,343.271C98.599,343.343 98.571,343.455 98.515,343.607C98.459,343.759 98.395,343.913 98.323,344.069C98.251,344.225 98.187,344.351 98.131,344.447C98.083,344.527 98.029,344.589 97.969,344.633C97.909,344.677 97.831,344.699 97.735,344.699C97.407,344.699 97.085,344.697 96.769,344.693C96.453,344.689 96.147,344.683 95.851,344.675C95.555,344.667 95.271,344.659 94.999,344.651C94.727,344.643 94.465,344.637 94.213,344.633C93.961,344.629 93.723,344.627 93.499,344.627C93.307,344.627 93.139,344.633 92.995,344.645C92.851,344.657 92.709,344.669 92.569,344.681C92.429,344.693 92.259,344.699 92.059,344.699Z" style="fill:rgb(8,47,73);fill-rule:nonzero;"/>
                        </g>
                        <g transform="matrix(38.1294,0,0,38.1294,-3513.82,-12297.6)">
                            <path d="M91.723,344.699C91.627,344.699 91.559,344.687 91.519,344.663C91.479,344.639 91.451,344.599 91.435,344.543C91.427,344.479 91.461,344.429 91.537,344.393C91.613,344.357 91.715,344.323 91.843,344.291C92.067,344.227 92.273,344.151 92.461,344.063C92.649,343.975 92.823,343.869 92.983,343.745C93.143,343.621 93.287,343.487 93.415,343.343C94.007,342.687 94.549,342.055 95.041,341.447C95.533,340.839 96.007,340.235 96.463,339.635C96.919,339.035 97.387,338.427 97.867,337.811C97.963,337.691 98.047,337.583 98.119,337.487C98.191,337.391 98.251,337.315 98.299,337.259C98.347,337.203 98.387,337.175 98.419,337.175C98.587,337.175 98.701,337.147 98.761,337.091C98.821,337.035 98.899,336.955 98.995,336.851C99.107,336.723 99.185,336.637 99.229,336.593C99.273,336.549 99.315,336.527 99.355,336.527C99.395,336.527 99.423,336.551 99.439,336.599C99.455,336.647 99.447,336.751 99.415,336.911L98.167,343.175C98.087,343.559 98.081,343.833 98.149,343.997C98.217,344.161 98.363,344.275 98.587,344.339C98.715,344.371 98.811,344.401 98.875,344.429C98.939,344.457 98.971,344.499 98.971,344.555C98.971,344.603 98.943,344.639 98.887,344.663C98.831,344.687 98.735,344.699 98.599,344.699C98.495,344.699 98.361,344.693 98.197,344.681C98.033,344.669 97.859,344.657 97.675,344.645C97.491,344.633 97.315,344.627 97.147,344.627L96.709,344.627C96.561,344.627 96.421,344.629 96.289,344.633C96.157,344.637 96.047,344.639 95.959,344.639C95.791,344.639 95.695,344.591 95.671,344.495C95.663,344.439 95.691,344.389 95.755,344.345C95.819,344.301 95.903,344.271 96.007,344.255C96.271,344.207 96.477,344.153 96.625,344.093C96.773,344.033 96.889,343.941 96.973,343.817C97.057,343.693 97.127,343.519 97.183,343.295L97.555,341.867C97.587,341.747 97.565,341.663 97.489,341.615C97.413,341.567 97.319,341.543 97.207,341.543L95.863,341.567C95.735,341.567 95.633,341.581 95.557,341.609C95.481,341.637 95.411,341.695 95.347,341.783L94.111,343.415C93.967,343.607 93.889,343.757 93.877,343.865C93.865,343.973 93.893,344.053 93.961,344.105C94.029,344.157 94.107,344.199 94.195,344.231C94.283,344.263 94.355,344.299 94.411,344.339C94.467,344.379 94.495,344.431 94.495,344.495C94.495,344.551 94.463,344.591 94.399,344.615C94.335,344.639 94.255,344.651 94.159,344.651C94.055,344.651 93.925,344.647 93.769,344.639C93.613,344.631 93.431,344.627 93.223,344.627C92.975,344.627 92.709,344.639 92.425,344.663C92.141,344.687 91.907,344.699 91.723,344.699ZM96.163,341.159L97.447,341.147C97.535,341.147 97.603,341.123 97.651,341.075C97.699,341.027 97.739,340.939 97.771,340.811L98.347,338.183C98.371,338.087 98.381,338.017 98.377,337.973C98.373,337.929 98.351,337.907 98.311,337.907C98.279,337.907 98.243,337.915 98.203,337.931C98.163,337.947 98.123,337.987 98.083,338.051L95.947,340.895C95.891,340.975 95.859,341.039 95.851,341.087C95.843,341.135 95.947,341.159 96.163,341.159Z" style="fill:rgb(249,168,115);fill-rule:nonzero;"/>
                        </g>
                        <g transform="matrix(38.8723,0,0,38.8723,-3357.05,-12330.4)">
                            <path d="M92.059,344.699C91.963,344.699 91.891,344.689 91.843,344.669C91.795,344.649 91.771,344.615 91.771,344.567C91.771,344.471 91.915,344.399 92.203,344.351C92.603,344.287 92.889,344.189 93.061,344.057C93.233,343.925 93.359,343.723 93.439,343.451L95.083,338.051C95.195,337.707 95.199,337.481 95.095,337.373C94.991,337.265 94.763,337.187 94.411,337.139C94.291,337.123 94.209,337.099 94.165,337.067C94.121,337.035 94.099,336.991 94.099,336.935C94.099,336.887 94.137,336.853 94.213,336.833C94.289,336.813 94.375,336.803 94.471,336.803C94.535,336.803 94.649,336.807 94.813,336.815C94.977,336.823 95.161,336.829 95.365,336.833C95.569,336.837 95.755,336.839 95.923,336.839L97.855,336.839C98.295,336.839 98.629,336.829 98.857,336.809C99.085,336.789 99.245,336.769 99.337,336.749C99.429,336.729 99.483,336.719 99.499,336.719C99.531,336.719 99.561,336.737 99.589,336.773C99.617,336.809 99.631,336.843 99.631,336.875C99.631,336.923 99.607,337.009 99.559,337.133C99.511,337.257 99.459,337.411 99.403,337.595C99.347,337.779 99.303,337.987 99.271,338.219C99.263,338.299 99.237,338.357 99.193,338.393C99.149,338.429 99.107,338.447 99.067,338.447C99.027,338.447 98.993,338.419 98.965,338.363C98.937,338.307 98.927,338.235 98.935,338.147C98.959,337.779 98.927,337.525 98.839,337.385C98.751,337.245 98.547,337.175 98.227,337.175L96.763,337.175C96.571,337.175 96.435,337.201 96.355,337.253C96.275,337.305 96.215,337.399 96.175,337.535L95.371,340.079C95.323,340.223 95.311,340.323 95.335,340.379C95.359,340.435 95.435,340.459 95.563,340.451L97.051,340.415C97.259,340.407 97.425,340.361 97.549,340.277C97.673,340.193 97.783,340.091 97.879,339.971C97.935,339.907 97.997,339.829 98.065,339.737C98.133,339.645 98.203,339.599 98.275,339.599C98.339,339.599 98.373,339.633 98.377,339.701C98.381,339.769 98.363,339.847 98.323,339.935C98.251,340.071 98.189,340.199 98.137,340.319C98.085,340.439 98.039,340.555 97.999,340.667C97.951,340.795 97.909,340.929 97.873,341.069C97.837,341.209 97.799,341.367 97.759,341.543C97.751,341.599 97.733,341.655 97.705,341.711C97.677,341.767 97.643,341.795 97.603,341.795C97.539,341.795 97.497,341.751 97.477,341.663C97.457,341.575 97.447,341.511 97.447,341.471C97.447,341.223 97.405,341.049 97.321,340.949C97.237,340.849 97.127,340.799 96.991,340.799L95.611,340.775C95.475,340.775 95.357,340.793 95.257,340.829C95.157,340.865 95.083,340.971 95.035,341.147L94.423,343.331C94.311,343.739 94.289,344.007 94.357,344.135C94.425,344.263 94.583,344.327 94.831,344.327L96.691,344.327C96.891,344.327 97.069,344.295 97.225,344.231C97.381,344.167 97.523,344.091 97.651,344.003C97.771,343.915 97.883,343.809 97.987,343.685C98.091,343.561 98.195,343.415 98.299,343.247C98.331,343.199 98.363,343.151 98.395,343.103C98.427,343.055 98.467,343.031 98.515,343.031C98.555,343.031 98.579,343.059 98.587,343.115C98.595,343.171 98.599,343.223 98.599,343.271C98.599,343.343 98.571,343.455 98.515,343.607C98.459,343.759 98.395,343.913 98.323,344.069C98.251,344.225 98.187,344.351 98.131,344.447C98.083,344.527 98.029,344.589 97.969,344.633C97.909,344.677 97.831,344.699 97.735,344.699C97.407,344.699 97.085,344.697 96.769,344.693C96.453,344.689 96.147,344.683 95.851,344.675C95.555,344.667 95.271,344.659 94.999,344.651C94.727,344.643 94.465,344.637 94.213,344.633C93.961,344.629 93.723,344.627 93.499,344.627C93.307,344.627 93.139,344.633 92.995,344.645C92.851,344.657 92.709,344.669 92.569,344.681C92.429,344.693 92.259,344.699 92.059,344.699Z" style="fill:rgb(249,168,115);fill-rule:nonzero;"/>
                        </g>
                        <g transform="matrix(17.7113,0,0,17.7113,-1454.3,-5167.83)">
                            <path d="M94.278,339.778C94.031,340.152 93.907,340.616 93.907,341.171C93.907,341.635 94.015,342.069 94.231,342.473C94.447,342.877 94.809,343.203 95.317,343.451C95.825,343.699 96.515,343.823 97.387,343.823C98.147,343.823 98.779,343.679 99.283,343.391C99.787,343.103 100.163,342.725 100.411,342.257C100.659,341.789 100.783,341.295 100.783,340.775C100.783,340.295 100.675,339.903 100.459,339.599C100.243,339.295 99.855,339.143 99.295,339.143C99.023,339.143 98.813,339.219 98.665,339.371C98.517,339.523 98.443,339.715 98.443,339.947C98.443,340.099 98.479,340.233 98.551,340.349C98.623,340.465 98.743,340.523 98.911,340.523C98.999,340.523 99.063,340.501 99.103,340.457C99.143,340.413 99.179,340.363 99.211,340.307C99.251,340.243 99.295,340.179 99.343,340.115C99.391,340.051 99.471,340.019 99.583,340.019C99.767,340.019 99.901,340.067 99.985,340.163C100.069,340.259 100.107,340.379 100.099,340.523C100.091,340.699 100.019,340.859 99.883,341.003C99.747,341.147 99.575,341.219 99.367,341.219C98.951,341.219 98.617,341.103 98.365,340.871C98.113,340.639 97.987,340.331 97.987,339.947C97.987,339.651 98.071,339.381 98.239,339.137C98.407,338.893 98.631,338.697 98.911,338.549C99.191,338.401 99.503,338.327 99.847,338.327L100.891,338.315C101.459,338.307 101.883,338.201 102.163,337.997C102.443,337.793 102.583,337.487 102.583,337.079C102.583,336.871 102.525,336.701 102.409,336.569C102.293,336.437 102.143,336.371 101.959,336.371C101.895,336.371 101.841,336.393 101.797,336.437C101.753,336.481 101.731,336.531 101.731,336.587C101.731,336.643 101.745,336.695 101.773,336.743C101.801,336.791 101.847,336.823 101.911,336.839C101.975,336.855 102.021,336.891 102.049,336.947C102.077,337.003 102.091,337.059 102.091,337.115C102.091,337.227 102.043,337.323 101.947,337.403C101.851,337.483 101.735,337.523 101.599,337.523C101.407,337.523 101.251,337.463 101.131,337.343C101.011,337.223 100.951,337.067 100.951,336.875C100.951,336.715 100.997,336.573 101.089,336.449C101.181,336.325 101.309,336.227 101.473,336.155C101.637,336.083 101.819,336.047 102.019,336.047C102.339,336.047 102.595,336.165 102.787,336.401C102.979,336.637 103.075,336.955 103.075,337.355C103.075,337.715 102.987,338.029 102.811,338.297C102.635,338.565 102.389,338.771 102.073,338.915C101.757,339.059 101.379,339.131 100.939,339.131C100.875,339.131 100.831,339.145 100.807,339.173C100.783,339.201 100.787,339.239 100.819,339.287C100.979,339.559 101.089,339.827 101.149,340.091C101.209,340.355 101.239,340.671 101.239,341.039C101.239,341.775 101.063,342.429 100.711,343.001C100.359,343.573 99.873,344.019 99.253,344.339C98.633,344.659 97.919,344.819 97.111,344.819C96.351,344.819 95.679,344.685 95.095,344.417C94.511,344.149 94.055,343.777 93.727,343.301C93.399,342.825 93.235,342.275 93.235,341.651C93.235,341.067 93.341,340.549 93.553,340.097C93.695,339.796 93.87,339.537 94.079,339.321C93.972,338.997 93.919,338.634 93.919,338.231C93.919,337.815 94.027,337.439 94.243,337.103C94.459,336.767 94.743,336.501 95.095,336.305C95.447,336.109 95.827,336.015 96.235,336.023C96.587,336.031 96.867,336.121 97.075,336.293C97.283,336.465 97.387,336.703 97.387,337.007C97.387,337.167 97.339,337.297 97.243,337.397C97.147,337.497 97.019,337.547 96.859,337.547C96.771,337.547 96.685,337.507 96.601,337.427C96.517,337.347 96.475,337.267 96.475,337.187C96.475,337.051 96.433,336.943 96.349,336.863C96.265,336.783 96.155,336.743 96.019,336.743C95.755,336.743 95.511,336.811 95.287,336.947C95.063,337.083 94.883,337.271 94.747,337.511C94.611,337.751 94.543,338.027 94.543,338.339C94.543,338.552 94.555,338.748 94.577,338.925C94.899,338.735 95.252,338.644 95.635,338.651C96.035,338.659 96.353,338.753 96.589,338.933C96.825,339.113 96.943,339.351 96.943,339.647C96.943,339.847 96.891,340.027 96.787,340.187C96.683,340.347 96.541,340.473 96.361,340.565C96.181,340.657 95.975,340.703 95.743,340.703C95.383,340.703 95.067,340.599 94.795,340.391C94.59,340.234 94.417,340.029 94.278,339.778ZM94.666,339.359C94.837,339.935 95.188,340.223 95.719,340.223C95.935,340.223 96.107,340.167 96.235,340.055C96.363,339.943 96.427,339.795 96.427,339.611C96.427,339.451 96.351,339.321 96.199,339.221C96.047,339.121 95.847,339.071 95.599,339.071C95.235,339.071 94.924,339.167 94.666,339.359Z" style="fill:rgb(235,235,235);"/>
                        </g>
                        <g transform="matrix(17.7113,0,0,17.7113,-1454.3,-5167.83)">
                            <path d="M98.967,340.326C98.996,340.293 99.023,340.255 99.047,340.213C99.048,340.211 99.05,340.209 99.051,340.207C99.094,340.138 99.141,340.07 99.192,340.002C99.271,339.896 99.398,339.83 99.583,339.83C99.834,339.83 100.013,339.908 100.127,340.039C100.243,340.171 100.299,340.335 100.288,340.532C100.278,340.752 100.19,340.953 100.021,341.133C99.848,341.315 99.631,341.408 99.367,341.408C98.897,341.408 98.522,341.272 98.237,341.01C97.947,340.743 97.798,340.389 97.798,339.947C97.798,339.612 97.893,339.306 98.084,339.03C98.269,338.761 98.515,338.545 98.823,338.382C99.129,338.22 99.47,338.138 99.846,338.138L100.889,338.126C101.407,338.119 101.796,338.03 102.052,337.844C102.285,337.675 102.394,337.418 102.394,337.079C102.394,336.922 102.355,336.793 102.267,336.694C102.188,336.603 102.085,336.56 101.959,336.56C101.948,336.56 101.938,336.563 101.931,336.57C101.926,336.576 101.92,336.58 101.92,336.587C101.92,336.609 101.926,336.629 101.936,336.648C101.94,336.654 101.949,336.654 101.957,336.656C102.079,336.686 102.165,336.756 102.218,336.862C102.26,336.947 102.28,337.031 102.28,337.115C102.28,337.283 102.212,337.428 102.068,337.548C101.939,337.656 101.783,337.712 101.599,337.712C101.352,337.712 101.152,337.631 100.998,337.476C100.843,337.322 100.762,337.122 100.762,336.875C100.762,336.673 100.821,336.493 100.938,336.336C101.048,336.188 101.2,336.068 101.397,335.982C101.584,335.9 101.791,335.858 102.019,335.858C102.401,335.858 102.705,336 102.934,336.282C103.15,336.548 103.264,336.904 103.264,337.355C103.264,337.755 103.165,338.103 102.969,338.401C102.774,338.698 102.502,338.927 102.152,339.087C101.841,339.228 101.476,339.306 101.054,339.318C101.186,339.565 101.279,339.809 101.333,340.049C101.396,340.325 101.428,340.655 101.428,341.039C101.428,341.812 101.242,342.499 100.872,343.1C100.502,343.701 99.992,344.17 99.34,344.507C98.695,344.84 97.952,345.008 97.111,345.008C96.321,345.008 95.623,344.867 95.016,344.589C94.399,344.305 93.918,343.911 93.572,343.408C93.222,342.901 93.046,342.316 93.046,341.651C93.046,341.037 93.159,340.492 93.382,340.017C93.515,339.733 93.677,339.485 93.866,339.272C93.776,338.959 93.73,338.612 93.73,338.231C93.73,337.777 93.849,337.367 94.084,337.001C94.317,336.638 94.624,336.351 95.003,336.14C95.385,335.927 95.797,335.825 96.239,335.834L96.24,335.834C96.641,335.843 96.958,335.951 97.196,336.147C97.447,336.355 97.576,336.64 97.576,337.007C97.576,337.221 97.508,337.394 97.38,337.528C97.249,337.664 97.077,337.736 96.859,337.736C96.728,337.736 96.596,337.683 96.471,337.564C96.341,337.44 96.286,337.311 96.286,337.187C96.286,337.109 96.267,337.045 96.219,337C96.169,336.952 96.101,336.932 96.019,336.932C95.791,336.932 95.579,336.991 95.385,337.108C95.189,337.228 95.031,337.393 94.912,337.604C94.791,337.817 94.732,338.062 94.732,338.339C94.732,338.441 94.735,338.538 94.74,338.632C95.02,338.513 95.32,338.456 95.639,338.462L95.639,338.462C96.086,338.471 96.44,338.582 96.704,338.783C96.989,339.001 97.132,339.289 97.132,339.647C97.132,339.885 97.07,340.099 96.946,340.29C96.824,340.477 96.658,340.625 96.447,340.733C96.242,340.838 96.008,340.892 95.743,340.892C95.34,340.892 94.986,340.774 94.681,340.541C94.536,340.43 94.406,340.299 94.291,340.146C94.16,340.439 94.096,340.781 94.096,341.171C94.096,341.603 94.197,342.007 94.398,342.384C94.597,342.756 94.933,343.053 95.4,343.281C95.888,343.519 96.55,343.634 97.387,343.634C98.109,343.634 98.711,343.501 99.19,343.227C99.66,342.958 100.013,342.606 100.244,342.168C100.478,341.728 100.594,341.264 100.594,340.775C100.594,340.34 100.501,339.984 100.305,339.708C100.119,339.446 99.778,339.332 99.295,339.332C99.083,339.332 98.916,339.384 98.801,339.503C98.687,339.62 98.632,339.768 98.632,339.947C98.632,340.061 98.658,340.162 98.712,340.249C98.751,340.312 98.82,340.334 98.911,340.334C98.932,340.334 98.96,340.328 98.967,340.326ZM102.467,336.361C102.496,336.386 102.524,336.414 102.551,336.444C102.696,336.609 102.772,336.819 102.772,337.079C102.772,337.556 102.602,337.911 102.274,338.15C101.97,338.371 101.511,338.495 100.894,338.504L99.849,338.516C99.849,338.516 99.848,338.516 99.847,338.516C99.536,338.516 99.253,338.582 99,338.716C98.748,338.849 98.546,339.025 98.395,339.244C98.249,339.456 98.176,339.69 98.176,339.947C98.176,340.273 98.279,340.535 98.493,340.732C98.713,340.934 99.005,341.03 99.367,341.03C99.52,341.03 99.646,340.979 99.746,340.873C99.848,340.765 99.905,340.646 99.911,340.514C99.911,340.514 99.911,340.513 99.911,340.512C99.916,340.423 99.895,340.347 99.843,340.287C99.79,340.226 99.7,340.208 99.583,340.208C99.544,340.208 99.511,340.206 99.494,340.228C99.45,340.287 99.41,340.346 99.374,340.403C99.335,340.471 99.291,340.531 99.243,340.584C99.173,340.661 99.065,340.712 98.911,340.712C98.666,340.712 98.496,340.618 98.391,340.449C98.301,340.304 98.254,340.137 98.254,339.947C98.254,339.661 98.348,339.426 98.53,339.239C98.71,339.054 98.964,338.954 99.295,338.954C99.933,338.954 100.367,339.144 100.613,339.49C100.85,339.822 100.972,340.25 100.972,340.775C100.972,341.326 100.841,341.849 100.578,342.345C100.314,342.844 99.914,343.248 99.377,343.555C98.848,343.857 98.185,344.012 97.387,344.012C96.48,344.012 95.763,343.879 95.234,343.621C94.686,343.353 94.298,342.998 94.065,342.562C93.834,342.13 93.718,341.667 93.718,341.171C93.718,340.574 93.855,340.075 94.12,339.674C94.157,339.619 94.219,339.587 94.285,339.59C94.351,339.592 94.411,339.629 94.443,339.687C94.569,339.914 94.724,340.099 94.91,340.241C95.149,340.424 95.427,340.514 95.743,340.514C95.943,340.514 96.12,340.476 96.275,340.397C96.424,340.32 96.543,340.217 96.629,340.084C96.713,339.955 96.754,339.809 96.754,339.647C96.754,339.413 96.661,339.225 96.475,339.083C96.267,338.924 95.984,338.847 95.632,338.84C95.284,338.834 94.965,338.916 94.673,339.088C94.618,339.12 94.551,339.122 94.494,339.094C94.437,339.067 94.398,339.012 94.39,338.949C94.366,338.764 94.354,338.561 94.354,338.339C94.354,337.992 94.432,337.685 94.583,337.418C94.735,337.149 94.938,336.938 95.189,336.785C95.443,336.631 95.72,336.554 96.019,336.554C96.21,336.554 96.362,336.614 96.48,336.726C96.599,336.84 96.664,336.993 96.664,337.187C96.664,337.223 96.693,337.254 96.732,337.29C96.774,337.331 96.815,337.358 96.859,337.358C96.962,337.358 97.045,337.33 97.107,337.266C97.17,337.2 97.198,337.113 97.198,337.007C97.198,336.766 97.12,336.575 96.955,336.438C96.776,336.291 96.534,336.219 96.231,336.212C95.858,336.204 95.51,336.29 95.187,336.47C94.863,336.651 94.601,336.896 94.402,337.205C94.206,337.511 94.108,337.853 94.108,338.231C94.108,338.612 94.158,338.956 94.258,339.262C94.28,339.329 94.263,339.402 94.214,339.452C94.019,339.654 93.856,339.896 93.724,340.177C93.523,340.606 93.424,341.097 93.424,341.651C93.424,342.234 93.576,342.749 93.883,343.194C94.192,343.643 94.623,343.992 95.174,344.245C95.735,344.503 96.381,344.63 97.111,344.63C97.886,344.63 98.572,344.478 99.167,344.171C99.755,343.867 100.216,343.445 100.55,342.902C100.885,342.359 101.05,341.738 101.05,341.039C101.05,340.687 101.022,340.385 100.965,340.133C100.909,339.888 100.807,339.639 100.659,339.387C100.567,339.246 100.593,339.133 100.664,339.05C100.715,338.99 100.803,338.942 100.939,338.942C101.349,338.942 101.701,338.877 101.995,338.743C102.277,338.615 102.497,338.432 102.653,338.193C102.81,337.955 102.886,337.675 102.886,337.355C102.886,337.006 102.808,336.726 102.641,336.52C102.589,336.456 102.531,336.403 102.467,336.361ZM101.692,336.278C101.643,336.291 101.595,336.308 101.549,336.328C101.418,336.385 101.315,336.462 101.241,336.561C101.173,336.653 101.14,336.757 101.14,336.875C101.14,337.012 101.179,337.124 101.265,337.209C101.35,337.295 101.463,337.334 101.599,337.334C101.688,337.334 101.764,337.31 101.826,337.258C101.875,337.218 101.902,337.171 101.902,337.115C101.902,337.087 101.894,337.059 101.88,337.031C101.878,337.026 101.872,337.024 101.865,337.022C101.746,336.992 101.663,336.928 101.61,336.838C101.565,336.761 101.542,336.677 101.542,336.587C101.542,336.482 101.581,336.386 101.664,336.303C101.673,336.294 101.682,336.286 101.692,336.278ZM94.553,339.208C94.843,338.992 95.191,338.882 95.599,338.882C95.891,338.882 96.124,338.946 96.303,339.063C96.515,339.203 96.616,339.387 96.616,339.611C96.616,339.854 96.529,340.049 96.36,340.197C96.2,340.336 95.988,340.412 95.719,340.412C95.1,340.412 94.685,340.084 94.485,339.413C94.462,339.337 94.489,339.255 94.553,339.208ZM94.892,339.436C95.046,339.831 95.318,340.034 95.719,340.034C95.882,340.034 96.014,339.997 96.111,339.913C96.198,339.837 96.238,339.736 96.238,339.611C96.238,339.514 96.187,339.439 96.095,339.379C95.97,339.296 95.804,339.26 95.599,339.26C95.331,339.26 95.095,339.318 94.892,339.436Z" style="fill:rgb(8,47,73);"/>
                        </g>
                    </g>
                </g>
            </g>
        </g>
    </g>
</svg>
