<?xml version="1.0" standalone="no"?>
<!DOCTYPE svg PUBLIC "-//W3C//DTD SVG 20010904//EN"
 "http://www.w3.org/TR/2001/REC-SVG-20010904/DTD/svg10.dtd">
<svg version="1.0" xmlns="http://www.w3.org/2000/svg"
 width="700.000000pt" height="700.000000pt" viewBox="0 0 700.000000 700.000000"
 preserveAspectRatio="xMidYMid meet">
<metadata>
Created by potrace 1.14, written by Peter Selinger 2001-2017
</metadata>
<g transform="translate(0.000000,700.000000) scale(0.100000,-0.100000)"
fill="#000000" stroke="none">
<path d="M3280 6994 c-19 -2 -84 -9 -145 -14 -493 -48 -1003 -219 -1438 -482
-240 -145 -432 -294 -641 -498 -404 -394 -690 -847 -870 -1378 -82 -242 -135
-483 -168 -757 -17 -144 -17 -586 0 -730 121 -1020 623 -1882 1442 -2476 483
-351 1047 -567 1675 -641 144 -17 576 -17 730 0 1008 112 1903 637 2492 1462
341 479 552 1038 625 1655 16 145 17 588 0 730 -88 739 -371 1389 -838 1925
-102 118 -301 313 -414 407 -509 423 -1147 696 -1820 779 -117 15 -553 27
-630 18z m351 -325 c6 -13 8 -39 4 -68 -6 -41 -488 -2473 -502 -2528 -2 -12
-29 -37 -59 -57 -62 -42 -126 -118 -163 -196 -24 -51 -26 -64 -24 -185 1 -71
3 -143 5 -160 l3 -30 -355 -2 c-392 -3 -403 -2 -408 54 -5 46 34 68 184 102
71 16 148 36 172 45 99 36 169 109 212 222 11 30 58 203 106 386 93 359 94
363 41 402 -36 27 -153 31 -507 19 -219 -8 -249 -11 -280 -29 -22 -12 -85 -85
-164 -189 -471 -619 -484 -639 -493 -719 -7 -58 22 -90 124 -137 45 -21 92
-48 103 -59 29 -29 26 -66 -7 -87 -25 -16 -53 -18 -318 -15 -200 2 -363 -2
-525 -13 -129 -9 -253 -14 -275 -10 -50 8 -75 30 -75 66 0 37 22 51 137 85
102 30 103 31 103 121 0 29 7 105 15 170 161 1227 1078 2200 2289 2430 l141
27 48 58 c42 51 52 58 85 58 77 1 112 24 225 145 111 117 137 133 158 94z
m226 -354 c230 -31 455 -87 663 -167 131 -50 160 -74 160 -130 0 -30 -7 -46
-29 -69 -36 -36 -63 -37 -139 -5 -229 96 -493 162 -754 187 -75 8 -128 17
-128 23 0 6 7 48 16 94 l17 82 38 0 c21 0 91 -7 156 -15z m1185 -626 c144 -67
268 -122 274 -122 5 0 129 54 274 121 145 67 265 120 267 118 2 -2 -51 -122
-118 -267 -67 -145 -122 -268 -122 -274 0 -5 55 -129 122 -274 67 -145 120
-265 119 -267 -2 -1 -124 53 -272 121 l-268 123 -51 -23 c-29 -13 -151 -68
-271 -124 -121 -55 -221 -100 -222 -98 -2 1 53 124 121 273 l125 271 -116 249
c-122 262 -136 294 -130 294 2 0 123 -55 268 -121z m1058 -1130 c39 -14 62
-60 114 -233 84 -277 119 -517 119 -821 1 -240 -9 -344 -53 -565 -81 -408
-260 -809 -507 -1137 -55 -74 -55 -74 -57 -151 -1 -67 -8 -93 -50 -197 -103
-254 -171 -362 -244 -386 -38 -13 -515 -8 -1167 11 -453 14 -714 12 -935 -6
-214 -17 -349 -15 -375 6 -43 36 14 89 117 109 146 29 267 63 325 91 77 38
145 106 183 185 16 33 93 269 171 525 l141 466 67 34 c44 24 96 65 157 125 74
74 98 106 132 175 61 124 76 192 76 340 1 127 -11 197 -45 278 l-18 42 38 0
c50 0 148 30 204 63 24 14 61 45 82 69 21 23 36 35 33 27 -32 -84 -228 -727
-228 -749 0 -57 12 -60 223 -59 106 0 280 4 387 8 168 7 202 11 244 30 78 34
141 88 232 199 83 100 86 103 122 100 37 -3 37 -3 37 -48 -1 -34 -16 -78 -62
-175 -78 -165 -114 -270 -164 -469 -39 -161 -56 -196 -91 -196 -28 0 -48 57
-58 168 -9 110 -17 135 -54 179 -47 56 -79 61 -421 67 -402 7 -448 -1 -489
-89 -19 -38 -280 -965 -302 -1067 -22 -106 -19 -188 9 -229 43 -64 67 -68 473
-68 l360 -1 110 71 c160 104 263 188 408 329 150 146 259 278 368 445 230 350
374 755 419 1173 13 124 6 541 -10 627 -9 46 -6 61 40 195 54 160 56 175 33
208 -21 30 -54 29 -54 -1 0 -12 -20 -81 -44 -152 -50 -146 -79 -255 -96 -364
-18 -107 -69 -152 -116 -100 -17 18 -19 38 -20 158 -2 223 -34 291 -151 324
-50 15 -116 17 -437 17 -239 0 -393 -4 -420 -11 -73 -18 -101 -58 -151 -210
-40 -122 -44 -130 -44 -88 -2 128 -78 237 -182 258 -55 11 -138 3 -177 -18
-12 -6 -24 -4 -41 10 -29 24 -127 54 -237 73 -94 17 -129 33 -139 67 -9 28 12
48 61 60 24 5 205 4 464 -2 630 -17 1406 -4 1577 26 l32 6 -24 68 c-37 103
-32 146 23 175 33 19 41 19 82 5z m-2651 -553 c82 -43 106 -160 38 -185 -32
-12 -54 4 -62 45 -3 20 -19 50 -35 66 -25 25 -35 28 -92 28 -112 0 -216 -69
-269 -178 -18 -37 -24 -69 -27 -155 -5 -120 3 -142 47 -134 l26 5 -28 -20
c-32 -23 -33 -38 -6 -98 41 -90 106 -132 205 -133 126 -1 206 97 159 197 -18
37 -74 75 -112 77 -12 0 -13 2 -5 6 23 9 100 -27 128 -60 23 -27 26 -38 22
-89 -3 -47 -10 -64 -34 -89 -16 -17 -43 -38 -61 -45 -40 -17 -122 -18 -177 -2
-41 13 -110 73 -151 132 -29 41 -55 29 -88 -42 -35 -75 -46 -130 -47 -227 0
-186 76 -330 224 -427 156 -101 458 -135 684 -77 215 55 379 225 428 445 32
148 3 315 -69 392 -67 72 -240 102 -328 56 -137 -70 -119 -304 23 -304 34 0
46 6 74 36 19 19 34 40 34 45 0 13 54 11 68 -3 19 -19 14 -71 -11 -101 -60
-75 -230 -28 -278 77 -40 88 -19 177 61 257 80 81 113 90 350 99 215 8 268 19
337 70 58 43 87 106 87 191 1 49 4 63 11 51 5 -9 9 -51 10 -92 1 -174 -113
-282 -313 -297 -49 -4 -81 -12 -95 -24 -24 -19 -27 -9 29 -139 24 -57 28 -81
32 -196 4 -109 1 -144 -17 -214 -64 -253 -276 -434 -564 -480 -107 -18 -300
-8 -397 20 -102 29 -202 84 -271 147 -115 107 -161 215 -162 378 -1 153 34
266 114 373 40 53 41 54 30 99 -54 214 9 392 174 489 90 52 232 67 304 30z
m895 -26 c-9 -43 3 -79 31 -92 45 -20 25 -68 -28 -68 -40 0 -62 14 -77 49 -17
42 2 97 44 122 17 10 32 19 33 19 1 0 0 -13 -3 -30z m121 -45 c20 -19 25 -34
25 -75 0 -61 -18 -100 -62 -134 -53 -39 -169 -63 -167 -33 4 55 12 61 76 58
58 -2 64 0 100 32 32 30 38 41 38 77 0 36 -6 47 -35 71 -25 21 -30 29 -17 29
10 0 29 -11 42 -25z m-1352 -222 c3 -16 17 -45 31 -66 18 -26 22 -39 13 -41
-6 -2 -29 -8 -49 -14 l-38 -10 0 46 c0 55 18 125 29 117 5 -2 11 -17 14 -32z
m135 -180 c-10 -2 -28 -2 -40 0 -13 2 -5 4 17 4 22 1 32 -1 23 -4z m-81 -9
c-3 -3 -12 -4 -19 -1 -8 3 -5 6 6 6 11 1 17 -2 13 -5z m151 -90 c13 -9 21 -18
19 -21 -3 -3 -58 -2 -122 2 -64 4 -114 10 -111 13 3 3 27 11 53 18 56 16 127
11 161 -12z m-2449 -191 c20 -214 72 -442 148 -652 29 -81 32 -98 23 -127 -21
-63 -108 -87 -154 -41 -69 69 -195 563 -212 837 l-7 99 74 4 c41 1 83 4 95 5
19 2 21 -6 33 -125z m3287 -19 c14 -135 -39 -298 -130 -399 l-45 -50 13 45
c73 250 142 470 148 470 3 0 10 -30 14 -66z m-2570 -1191 l102 -45 266 122
c147 68 268 121 271 118 2 -2 -52 -124 -120 -271 l-123 -267 119 -256 c65
-141 121 -264 124 -274 4 -14 -64 14 -265 107 l-272 126 -101 -46 c-56 -25
-180 -82 -274 -126 -95 -44 -173 -78 -173 -76 0 3 56 126 125 275 l124 270
-124 270 c-69 149 -125 272 -125 275 0 2 78 -32 173 -76 94 -44 218 -101 273
-126z m956 -998 c290 -116 609 -175 958 -175 320 0 608 47 877 145 68 24 71
24 282 17 l213 -7 -118 -59 c-286 -141 -568 -226 -904 -272 -152 -21 -517 -24
-665 -5 -246 30 -547 106 -738 187 -67 27 -91 43 -102 65 -23 43 -18 77 14
110 39 39 76 38 183 -6z"/>
<path d="M3137 6129 c-17 -10 -902 -1183 -926 -1226 -20 -39 -14 -60 20 -67
49 -10 589 -7 634 4 47 10 80 45 95 98 33 118 251 1140 248 1166 -2 25 -8 31
-28 33 -14 2 -33 -2 -43 -8z"/>
<path d="M2777 6044 c-609 -176 -1133 -562 -1488 -1094 -172 -258 -315 -603
-379 -914 -23 -114 -53 -346 -46 -354 7 -6 100 50 178 109 226 169 937 1029
1856 2245 42 55 39 55 -121 8z"/>
</g>
</svg>
